<svg xmlns="http://www.w3.org/2000/svg" aria-hidden="true" style="position:absolute;width:0;height:0;overflow:hidden"><defs><symbol id="icon-bus" viewBox="0 0 32 32"><path d="M5.333 18v7.2a4.145 4.145 0 0 0 4.133 4.133h13.067a4.145 4.145 0 0 0 4.133-4.133V18a.66.66 0 0 0-.667-.667h-20a.66.66 0 0 0-.667.667zm6.507 6.507c-.307.32-.733.493-1.173.493-.107 0-.213-.013-.32-.027-.107-.027-.213-.053-.32-.107-.093-.04-.2-.093-.28-.147-.093-.067-.187-.133-.253-.213-.32-.307-.493-.733-.493-1.173s.173-.867.493-1.173c.067-.08.16-.147.253-.213.08-.053.187-.107.28-.147.107-.053.213-.08.32-.107a1.68 1.68 0 0 1 1.493.467c.32.307.493.733.493 1.173s-.173.867-.493 1.173zm10.667 0c-.067.08-.16.147-.253.213-.08.053-.187.107-.28.147-.107.053-.213.08-.307.107-.12.013-.227.027-.333.027s-.213-.013-.32-.027c-.107-.027-.213-.053-.32-.107-.093-.04-.2-.093-.28-.147-.093-.067-.187-.133-.253-.213-.32-.307-.493-.733-.493-1.173s.173-.867.493-1.173c.067-.08.16-.147.253-.213.08-.053.187-.107.28-.147.107-.053.213-.08.32-.107.213-.04.427-.04.653 0 .093.027.2.053.307.107.093.04.2.093.28.147.093.067.187.133.253.213.32.307.493.733.493 1.173s-.173.867-.493 1.173zM22.533 2.667H9.466A4.136 4.136 0 0 0 5.333 6.8V10a.66.66 0 0 0 .667.667h20a.66.66 0 0 0 .667-.667V6.8a4.136 4.136 0 0 0-4.133-4.133zm-3.2 5h-6.667c-.547 0-1-.453-1-1s.453-1 1-1h6.667c.547 0 1 .453 1 1s-.453 1-1 1zM26 16H6a.66.66 0 0 1-.667-.667v-2.667A.66.66 0 0 1 6 11.999h20a.66.66 0 0 1 .667.667v2.667A.66.66 0 0 1 26 16z"/></symbol><symbol id="icon-driving" viewBox="0 0 32 32"><path d="M16 25c-.547 0-1-.453-1-1v-1.333c0-.547.453-1 1-1s1 .453 1 1V24c0 .547-.453 1-1 1zM16 30.333c-.547 0-1-.453-1-1V28c0-.547.453-1 1-1s1 .453 1 1v1.333c0 .547-.453 1-1 1zM2.667 30.333a1.4 1.4 0 0 1-.24-.027 1.007 1.007 0 0 1-.733-1.213l1.333-5.333a1 1 0 0 1 1.213-.733c.533.133.867.68.733 1.213L3.64 29.573c-.12.453-.52.76-.973.76zM29.003 30.003a1.01 1.01 0 0 1-.973-.76l-1.333-5.333a.997.997 0 0 1 .733-1.213.997.997 0 0 1 1.213.733l1.333 5.333a.997.997 0 0 1-.733 1.213c-.08.013-.16.027-.24.027zM25.52 7.067c0 .4-.333.72-.72.72H7.373c-.4 0-.72-.333-.72-.72 0-.4.333-.72.72-.72h.987L8.733 4.6C9.08 2.893 9.8 1.333 12.68 1.333h6.787c2.88 0 3.613 1.56 3.96 3.253l.373 1.747h.987c.4 0 .733.333.733.733zM25.933 12.533c-.147-1.6-.573-3.293-3.68-3.293H9.906c-3.107 0-3.52 1.707-3.68 3.293l-.547 5.893a2.655 2.655 0 0 0 .68 2.027c.52.56 1.24.88 2.013.88h1.813c1.573 0 1.867-.893 2.067-1.493l.2-.587c.227-.667.28-.827 1.147-.827h4.96c.867 0 .893.093 1.147.827l.2.587c.187.6.493 1.493 2.053 1.493h1.813c.76 0 1.493-.32 2.013-.88a2.637 2.637 0 0 0 .68-2.027l-.533-5.893zm-12.76 2.027H10.28c-.4 0-.72-.333-.72-.72s.333-.72.72-.72h2.907c.4 0 .72.333.72.72s-.333.72-.733.72zm8.707 0h-2.907c-.4 0-.72-.333-.72-.72s.333-.72.72-.72h2.907c.4 0 .72.333.72.72s-.32.72-.72.72z"/></symbol><symbol id="icon-ship" viewBox="0 0 32 32"><path d="m28.84 19.547-.547 2.48c-.947 4.267-4.293 7.307-9.12 7.307h-6.347c-4.827 0-8.173-3.04-9.12-7.307l-.547-2.48c-.267-1.213.453-2.587 1.613-3.053l9.24-3.707c.64-.253 1.32-.387 1.987-.387s1.347.133 1.987.387l9.24 3.707c1.16.467 1.88 1.84 1.613 3.053z"/><path d="M25.333 10.667v1.92c0 .467-.48.8-.92.613l-5.693-2.28a7.477 7.477 0 0 0-5.453.013l-5.68 2.28a.665.665 0 0 1-.92-.613v-1.933c0-2.2 1.8-4 4-4h10.667c2.2 0 4 1.8 4 4zM19.333 6.667h-6.667V4c0-.733.6-1.333 1.333-1.333h4c.733 0 1.333.6 1.333 1.333v2.667z"/></symbol><symbol id="icon-smart-car" viewBox="0 0 32 32"><path d="M24.947 12.653c-.133 0-.267-.027-.4-.08a1.013 1.013 0 0 1-.52-1.32c.253-.573.107-1.413-.36-2.107-.467-.707-1.173-1.187-1.813-1.147a.99.99 0 0 1-1.013-.987c0-.56.44-1 .987-1.013 1.373-.027 2.667.76 3.507 2.027.853 1.28 1.053 2.813.533 4.013a.993.993 0 0 1-.92.613z"/><path d="M29.093 13.973a.92.92 0 0 1-.267-.04.993.993 0 0 1-.693-1.227c.507-1.813.08-3.973-1.133-5.787s-3.053-3.027-4.933-3.253c-.547-.067-.933-.56-.867-1.107s.573-.947 1.107-.867c2.44.293 4.813 1.84 6.347 4.133s2.053 5.067 1.4 7.44c-.12.413-.52.707-.96.707zM22.827 15.707a.74.74 0 0 1-.733.733H4.574c-.4 0-.733-.333-.733-.733s.333-.733.733-.733h.987l.373-1.76c.347-1.707 1.08-3.267 3.987-3.267h6.84c2.907 0 3.627 1.573 3.987 3.267l.373 1.76h.987c.387 0 .72.333.72.733zM23.24 21.213c-.147-1.6-.573-3.32-3.693-3.32H7.12c-3.12 0-3.547 1.72-3.693 3.32l-.547 5.933c-.067.733.173 1.48.68 2.04.52.56 1.24.88 2.027.88h1.827c1.573 0 1.88-.907 2.08-1.493l.2-.587c.227-.667.28-.84 1.16-.84h4.987c.88 0 .907.093 1.16.84l.2.587c.2.6.493 1.493 2.08 1.493h1.827c.773 0 1.507-.32 2.027-.88.507-.56.747-1.293.68-2.04l-.573-5.933zM10.413 23.24h-2.92c-.4 0-.733-.333-.733-.733s.333-.733.733-.733h2.92c.4 0 .733.333.733.733s-.333.733-.733.733zm8.76 0h-2.92c-.4 0-.733-.333-.733-.733s.333-.733.733-.733h2.92c.4 0 .733.333.733.733s-.333.733-.733.733z"/></symbol><symbol id="icon-arrow" viewBox="0 0 32 32">
<path d="M31.723 15.578l-9.907-9.694c-0.191-0.145-0.429-0.218-0.671-0.203s-0.469 0.115-0.64 0.283c-0.171 0.168-0.274 0.391-0.289 0.627s0.059 0.47 0.207 0.657l8.211 8.047h-27.641c-0.263 0-0.516 0.102-0.702 0.285s-0.291 0.43-0.291 0.688c0 0.258 0.105 0.505 0.291 0.688s0.439 0.285 0.702 0.285h27.625l-8.195 8.031c-0.111 0.085-0.203 0.191-0.268 0.313s-0.104 0.256-0.113 0.394c-0.009 0.138 0.012 0.276 0.062 0.405s0.127 0.246 0.226 0.344c0.1 0.098 0.219 0.173 0.351 0.222s0.272 0.070 0.413 0.061c0.14-0.009 0.277-0.046 0.402-0.111s0.233-0.154 0.32-0.263l9.907-9.71c0.178-0.181 0.277-0.423 0.277-0.675s-0.099-0.493-0.277-0.675z"></path>
</symbol></defs></svg>